<mxfile host="app.diagrams.net" modified="2023-06-02T16:28:20.639Z" agent="Mozilla/5.0 (Windows NT 10.0; Win64; x64) AppleWebKit/537.36 (KHTML, like Gecko) Chrome/113.0.0.0 Safari/537.36" etag="0F77ENVO_qS5c6c-Z9ZY" version="21.3.6" type="device">
  <diagram id="C5RBs43oDa-KdzZeNtuy" name="Page-1">
    <mxGraphModel dx="1434" dy="796" grid="1" gridSize="10" guides="1" tooltips="1" connect="1" arrows="1" fold="1" page="1" pageScale="1" pageWidth="827" pageHeight="1169" math="0" shadow="0">
      <root>
        <mxCell id="WIyWlLk6GJQsqaUBKTNV-0" />
        <mxCell id="WIyWlLk6GJQsqaUBKTNV-1" parent="WIyWlLk6GJQsqaUBKTNV-0" />
        <mxCell id="6NkFYBZcf6LsaVMh4ESc-3" value="" style="edgeStyle=orthogonalEdgeStyle;rounded=0;orthogonalLoop=1;jettySize=auto;html=1;" edge="1" parent="WIyWlLk6GJQsqaUBKTNV-1" source="6NkFYBZcf6LsaVMh4ESc-0" target="6NkFYBZcf6LsaVMh4ESc-1">
          <mxGeometry relative="1" as="geometry" />
        </mxCell>
        <mxCell id="6NkFYBZcf6LsaVMh4ESc-0" value="INICIO" style="ellipse;whiteSpace=wrap;html=1;fillColor=#0050ef;fontColor=#ffffff;strokeColor=#001DBC;" vertex="1" parent="WIyWlLk6GJQsqaUBKTNV-1">
          <mxGeometry x="354" y="40" width="120" height="80" as="geometry" />
        </mxCell>
        <mxCell id="6NkFYBZcf6LsaVMh4ESc-6" value="" style="edgeStyle=orthogonalEdgeStyle;rounded=0;orthogonalLoop=1;jettySize=auto;html=1;" edge="1" parent="WIyWlLk6GJQsqaUBKTNV-1" source="6NkFYBZcf6LsaVMh4ESc-1" target="6NkFYBZcf6LsaVMh4ESc-5">
          <mxGeometry relative="1" as="geometry" />
        </mxCell>
        <mxCell id="6NkFYBZcf6LsaVMh4ESc-1" value="num(int)&lt;br&gt;" style="rounded=0;whiteSpace=wrap;html=1;fillColor=#0050ef;fontColor=#ffffff;strokeColor=#001DBC;" vertex="1" parent="WIyWlLk6GJQsqaUBKTNV-1">
          <mxGeometry x="354" y="170" width="126" height="80" as="geometry" />
        </mxCell>
        <mxCell id="6NkFYBZcf6LsaVMh4ESc-8" value="" style="edgeStyle=orthogonalEdgeStyle;rounded=0;orthogonalLoop=1;jettySize=auto;html=1;" edge="1" parent="WIyWlLk6GJQsqaUBKTNV-1" source="6NkFYBZcf6LsaVMh4ESc-5" target="6NkFYBZcf6LsaVMh4ESc-7">
          <mxGeometry relative="1" as="geometry" />
        </mxCell>
        <mxCell id="6NkFYBZcf6LsaVMh4ESc-5" value="&quot;ingresa un nÃºmero&quot;" style="shape=document;whiteSpace=wrap;html=1;boundedLbl=1;fillColor=#0050ef;fontColor=#ffffff;strokeColor=#001DBC;" vertex="1" parent="WIyWlLk6GJQsqaUBKTNV-1">
          <mxGeometry x="357" y="280" width="120" height="80" as="geometry" />
        </mxCell>
        <mxCell id="6NkFYBZcf6LsaVMh4ESc-10" style="edgeStyle=orthogonalEdgeStyle;rounded=0;orthogonalLoop=1;jettySize=auto;html=1;entryX=0.5;entryY=0;entryDx=0;entryDy=0;" edge="1" parent="WIyWlLk6GJQsqaUBKTNV-1" source="6NkFYBZcf6LsaVMh4ESc-7" target="6NkFYBZcf6LsaVMh4ESc-9">
          <mxGeometry relative="1" as="geometry" />
        </mxCell>
        <mxCell id="6NkFYBZcf6LsaVMh4ESc-7" value="num" style="shape=parallelogram;perimeter=parallelogramPerimeter;whiteSpace=wrap;html=1;fixedSize=1;fillColor=#0050ef;fontColor=#ffffff;strokeColor=#001DBC;" vertex="1" parent="WIyWlLk6GJQsqaUBKTNV-1">
          <mxGeometry x="354" y="390" width="120" height="60" as="geometry" />
        </mxCell>
        <mxCell id="6NkFYBZcf6LsaVMh4ESc-12" style="edgeStyle=orthogonalEdgeStyle;rounded=0;orthogonalLoop=1;jettySize=auto;html=1;entryX=0.567;entryY=-0.05;entryDx=0;entryDy=0;entryPerimeter=0;" edge="1" parent="WIyWlLk6GJQsqaUBKTNV-1" source="6NkFYBZcf6LsaVMh4ESc-9" target="6NkFYBZcf6LsaVMh4ESc-11">
          <mxGeometry relative="1" as="geometry" />
        </mxCell>
        <mxCell id="6NkFYBZcf6LsaVMh4ESc-13" value="SI" style="edgeLabel;html=1;align=center;verticalAlign=middle;resizable=0;points=[];" vertex="1" connectable="0" parent="6NkFYBZcf6LsaVMh4ESc-12">
          <mxGeometry x="-0.6727" relative="1" as="geometry">
            <mxPoint as="offset" />
          </mxGeometry>
        </mxCell>
        <mxCell id="6NkFYBZcf6LsaVMh4ESc-15" style="edgeStyle=orthogonalEdgeStyle;rounded=0;orthogonalLoop=1;jettySize=auto;html=1;" edge="1" parent="WIyWlLk6GJQsqaUBKTNV-1" source="6NkFYBZcf6LsaVMh4ESc-9" target="6NkFYBZcf6LsaVMh4ESc-14">
          <mxGeometry relative="1" as="geometry" />
        </mxCell>
        <mxCell id="6NkFYBZcf6LsaVMh4ESc-19" value="NO" style="edgeLabel;html=1;align=center;verticalAlign=middle;resizable=0;points=[];" vertex="1" connectable="0" parent="6NkFYBZcf6LsaVMh4ESc-15">
          <mxGeometry x="-0.3622" relative="1" as="geometry">
            <mxPoint as="offset" />
          </mxGeometry>
        </mxCell>
        <mxCell id="6NkFYBZcf6LsaVMh4ESc-9" value="num&amp;gt;0" style="rhombus;whiteSpace=wrap;html=1;fillColor=#0050ef;fontColor=#ffffff;strokeColor=#001DBC;" vertex="1" parent="WIyWlLk6GJQsqaUBKTNV-1">
          <mxGeometry x="374" y="520" width="80" height="80" as="geometry" />
        </mxCell>
        <mxCell id="6NkFYBZcf6LsaVMh4ESc-18" style="edgeStyle=orthogonalEdgeStyle;rounded=0;orthogonalLoop=1;jettySize=auto;html=1;" edge="1" parent="WIyWlLk6GJQsqaUBKTNV-1" source="6NkFYBZcf6LsaVMh4ESc-11" target="6NkFYBZcf6LsaVMh4ESc-16">
          <mxGeometry relative="1" as="geometry">
            <Array as="points">
              <mxPoint x="620" y="790" />
              <mxPoint x="394" y="790" />
            </Array>
          </mxGeometry>
        </mxCell>
        <mxCell id="6NkFYBZcf6LsaVMh4ESc-11" value="&quot;es positivo&quot;" style="shape=document;whiteSpace=wrap;html=1;boundedLbl=1;fillColor=#0050ef;fontColor=#ffffff;strokeColor=#001DBC;" vertex="1" parent="WIyWlLk6GJQsqaUBKTNV-1">
          <mxGeometry x="560" y="610" width="120" height="80" as="geometry" />
        </mxCell>
        <mxCell id="6NkFYBZcf6LsaVMh4ESc-17" style="edgeStyle=orthogonalEdgeStyle;rounded=0;orthogonalLoop=1;jettySize=auto;html=1;" edge="1" parent="WIyWlLk6GJQsqaUBKTNV-1" source="6NkFYBZcf6LsaVMh4ESc-14" target="6NkFYBZcf6LsaVMh4ESc-16">
          <mxGeometry relative="1" as="geometry">
            <Array as="points">
              <mxPoint x="190" y="790" />
              <mxPoint x="394" y="790" />
            </Array>
          </mxGeometry>
        </mxCell>
        <mxCell id="6NkFYBZcf6LsaVMh4ESc-14" value="&quot;es negativo&quot;" style="shape=document;whiteSpace=wrap;html=1;boundedLbl=1;fillColor=#0050ef;fontColor=#ffffff;strokeColor=#001DBC;" vertex="1" parent="WIyWlLk6GJQsqaUBKTNV-1">
          <mxGeometry x="130" y="630" width="120" height="80" as="geometry" />
        </mxCell>
        <mxCell id="6NkFYBZcf6LsaVMh4ESc-16" value="fin" style="ellipse;whiteSpace=wrap;html=1;fillColor=#0050ef;fontColor=#ffffff;strokeColor=#001DBC;" vertex="1" parent="WIyWlLk6GJQsqaUBKTNV-1">
          <mxGeometry x="334" y="870" width="120" height="80" as="geometry" />
        </mxCell>
      </root>
    </mxGraphModel>
  </diagram>
</mxfile>
